<svg xmlns="http://www.w3.org/2000/svg" width="244" height="41" viewBox="0 0 244 41" fill="none"><g clip-path="url(#clip0)"><path fill-rule="evenodd" clip-rule="evenodd" d="M36.0421 38.9963C31.3689 38.6429 30.4343 36.1098 30.5511 31.4561V14.3728C30.4343 5.18312 21.3799 5.18312 21.1463 14.3728V40.9403H23.1324V14.3728C23.6581 8.01071 28.1561 8.06961 28.565 14.3728V32.2808C28.6234 39.1142 31.3689 40.528 36.0421 40.8225C36.6847 40.8814 37.3857 40.8814 38.0867 40.8814H50.938V39.0552H37.2689C36.8599 39.0552 36.451 39.0552 36.0421 38.9963ZM11.5662 7.48053C9.40483 7.48053 7.24348 9.71904 7.18506 14.3728V40.9403H8.8791V14.3139C9.17118 10.8383 10.3395 9.4245 11.5078 9.4245C12.7929 9.48341 14.0196 11.3096 14.078 14.3139V40.8814H15.8889V14.3139C15.8889 9.83686 13.7276 7.53944 11.5662 7.48053ZM51.1132 24.505H37.3857V32.163H50.9964V34.0481H38.0282C37.152 33.9892 36.5095 33.6946 36.1005 33.1644C35.7501 32.7521 35.5164 32.2219 35.458 31.515V22.561H49.3608V12.3699C49.1855 5.18312 41.5916 -0.118603 36.0421 3.23916C35.0491 3.82824 34.1144 4.71186 33.2966 5.89002C29.2076 1.00065 22.0225 0.882833 18.8097 6.36128C17.0572 3.76933 14.3117 2.29663 11.5078 2.1199C6.77615 1.76645 1.9277 5.0653 1.75245 12.4877V40.9992H0V11.8986C0.11683 3.71042 6.01676 -0.236419 11.5662 -0.000787215C14.3117 0.117029 16.9988 1.29519 18.7513 3.47479C22.5482 -0.884408 28.9155 -0.589868 33.2966 3.18025C34.2313 2.41444 35.1659 1.76645 36.1005 1.29519C37.5609 0.588293 39.0213 0.234845 40.5985 0.411569C45.9143 0.941741 51.1132 6.00783 51.1132 12.3699V24.505ZM39.8391 7.65726C42.0005 7.65726 44.1618 9.12996 44.2787 12.0754V18.084H35.5164V12.0165C35.6332 9.12996 37.7362 7.65726 39.8391 7.65726ZM42.4678 16.4346H37.2104V12.0165C37.3857 10.0725 38.6124 9.30668 39.8391 9.30668C41.1827 9.30668 42.4678 10.3081 42.4678 11.8986V16.4346Z" fill="white"></path><path fill-rule="evenodd" clip-rule="evenodd" d="M139.495 3.71087L139.67 3.59305C139.612 3.53415 139.554 3.41633 139.495 3.35742V3.71087Z" fill="white"></path><path fill-rule="evenodd" clip-rule="evenodd" d="M172.909 11.1331C172.675 13.5484 171.74 15.5512 170.163 17.0828C168.411 18.8501 166.191 19.7337 163.562 19.7337C162.628 19.7337 161.693 19.6159 160.817 19.3213C159.941 19.0268 159.123 18.6734 158.363 18.1432C157.078 17.2596 156.027 16.1403 155.326 14.7265C154.625 13.3716 154.216 11.84 154.216 10.3084C154.216 9.36589 154.333 8.48227 154.625 7.59864C154.917 6.71502 155.267 5.89031 155.793 5.0656C156.669 3.76962 157.779 2.70928 159.181 1.94347C160.583 1.17767 162.043 0.824219 163.562 0.824219C165.957 0.824219 167.943 1.53112 169.637 2.94491C171.098 4.18198 172.091 5.7725 172.617 7.77537H166.483C166.249 7.53974 166.016 7.3041 165.782 7.12738C165.198 6.71502 164.497 6.47939 163.679 6.47939C162.628 6.47939 161.751 6.83284 161.05 7.59864C160.291 8.36445 159.941 9.24807 159.941 10.2495C159.941 11.3099 160.291 12.1935 161.05 12.9004C161.81 13.6073 162.686 14.0196 163.679 14.0196C164.731 14.0196 165.607 13.7251 166.249 13.0182C166.717 12.5469 167.067 11.8989 167.301 11.0742H172.909V11.1331Z" fill="white"></path><path fill-rule="evenodd" clip-rule="evenodd" d="M174.136 6.47977V1.11914H187.279V6.47977H183.424V19.3217H177.991V6.47977H174.136Z" fill="white"></path><path fill-rule="evenodd" clip-rule="evenodd" d="M201.824 1.11914V11.0746C201.824 12.1939 201.766 13.1364 201.649 13.8433C201.532 14.5502 201.357 15.1982 201.065 15.8462C200.539 17.0243 199.838 17.9668 198.787 18.6148C197.794 19.3217 196.684 19.6752 195.457 19.6752C194.23 19.6752 193.12 19.3217 192.127 18.6148C191.076 17.9079 190.375 16.9654 189.849 15.8462C189.557 15.1982 189.382 14.5502 189.265 13.8433C189.148 13.1364 189.09 12.2528 189.09 11.0746V10.7801V1.11914H194.347V12.1349C194.347 12.8418 194.464 13.3131 194.639 13.6666C194.815 13.9611 195.107 14.1378 195.516 14.1378C195.924 14.1378 196.216 14.02 196.333 13.7255C196.509 13.4309 196.567 12.9597 196.567 12.1939V1.11914H201.824Z" fill="white"></path><path fill-rule="evenodd" clip-rule="evenodd" d="M210.528 8.83609H211.112C211.638 8.83609 212.047 8.71828 212.281 8.54155C212.514 8.36483 212.631 8.01138 212.631 7.59903C212.631 7.18667 212.514 6.83322 212.339 6.6565C212.105 6.47977 211.755 6.36196 211.171 6.36196H209.769V19.3217H204.395V1.11914H210.879C212.105 1.11914 213.04 1.23696 213.683 1.41368C214.325 1.59041 214.968 1.94385 215.552 2.35621C216.311 2.94529 216.954 3.65219 217.363 4.53581C217.772 5.36052 218.005 6.30305 218.005 7.30449C218.005 8.24701 217.772 9.07173 217.363 9.83753C216.954 10.6033 216.311 11.3102 215.435 12.0171L218.589 19.3806H212.923L210.47 13.6666V8.83609H210.528Z" fill="white"></path><path fill-rule="evenodd" clip-rule="evenodd" d="M219.699 19.3217V9.66074C219.699 8.6593 219.699 7.8935 219.758 7.36333C219.816 6.83315 219.874 6.36189 219.991 5.89062C220.4 4.2412 221.16 3.00413 222.211 2.12051C223.321 1.23689 224.606 0.765625 226.125 0.765625C227.176 0.765625 228.169 1.00126 229.046 1.47252C229.98 1.94379 230.681 2.65068 231.265 3.5343C231.733 4.2412 232.083 5.06591 232.258 5.94953C232.492 6.83315 232.551 8.07022 232.551 9.60183V19.3217H227.293V8.36476C227.293 7.65787 227.176 7.12769 227.001 6.83315C226.826 6.53861 226.534 6.36189 226.125 6.36189C225.716 6.36189 225.482 6.47971 225.307 6.77425C225.132 7.06879 225.073 7.59896 225.073 8.36476V10.3087H226.475V15.1392H225.073V19.3806H219.699V19.3217Z" fill="white"></path><path fill-rule="evenodd" clip-rule="evenodd" d="M234.712 19.3806V14.1967C234.946 14.2556 235.121 14.2556 235.296 14.3145C235.471 14.3145 235.588 14.3734 235.705 14.3734C236.172 14.3734 236.523 14.2556 236.756 14.0199C236.99 13.7843 237.107 13.4309 237.107 13.0185C237.107 12.5472 236.873 11.9582 236.464 11.2513C236.406 11.1923 236.348 11.0745 236.348 11.0745L236.231 10.8978C235.413 9.54292 234.946 8.24695 234.946 7.06879C234.946 5.41936 235.53 3.94666 236.756 2.65068C237.983 1.41361 239.444 0.765625 241.138 0.765625C241.546 0.765625 242.014 0.824533 242.423 0.883441C242.89 1.00126 243.357 1.11907 243.883 1.2958V6.53861C243.533 6.4208 243.299 6.30298 243.065 6.24407C242.832 6.18516 242.598 6.12626 242.423 6.12626C242.014 6.12626 241.663 6.24407 241.43 6.53861C241.196 6.77425 241.021 7.12769 241.021 7.54005C241.021 7.8935 241.254 8.48258 241.663 9.18948C241.722 9.3662 241.78 9.42511 241.839 9.54292C242.247 10.1909 242.481 10.8389 242.656 11.4869C242.832 12.1349 242.948 12.7829 242.948 13.4309C242.948 15.257 242.364 16.7297 241.138 17.9668C239.911 19.1449 238.45 19.734 236.698 19.734C236.406 19.734 236.055 19.734 235.763 19.6751C235.53 19.5573 235.121 19.4984 234.712 19.3806Z" fill="white"></path><path d="M148.666 22.0312H143.292V40.2338H148.666V22.0312Z" fill="white"></path><path fill-rule="evenodd" clip-rule="evenodd" d="M169.229 31.9866C168.995 34.4019 168.061 36.4048 166.483 37.9364C164.731 39.7036 162.511 40.5872 159.883 40.5872C158.948 40.5872 158.013 40.4694 157.137 40.1749C156.261 39.8803 155.443 39.5269 154.684 38.9967C153.398 38.1131 152.347 36.9938 151.646 35.58C150.945 34.2252 150.536 32.7525 150.536 31.1619C150.536 30.2194 150.653 29.3358 150.945 28.4522C151.237 27.5685 151.588 26.7438 152.113 25.9191C152.99 24.6231 154.099 23.5628 155.501 22.797C156.903 22.0312 158.364 21.6777 159.883 21.6777C162.278 21.6777 164.264 22.3846 165.958 23.7984C167.418 25.0355 168.411 26.626 168.937 28.6289H162.803C162.57 28.3933 162.336 28.1576 162.102 27.9809C161.518 27.5685 160.817 27.3329 159.999 27.3329C158.948 27.3329 158.072 27.6864 157.371 28.4522C156.611 29.218 156.261 30.1016 156.261 31.103C156.261 32.1634 156.611 33.047 157.371 33.7539C158.13 34.5197 159.006 34.8731 159.999 34.8731C161.051 34.8731 161.927 34.5197 162.57 33.8717C163.037 33.4004 163.387 32.7525 163.621 31.9277H169.229V31.9866Z" fill="white"></path><path fill-rule="evenodd" clip-rule="evenodd" d="M171.156 40.2341V30.5143C171.156 29.5128 171.156 28.747 171.215 28.2168C171.273 27.6867 171.331 27.2154 171.448 26.7441C171.857 25.0947 172.617 23.8576 173.668 22.974C174.778 22.0904 176.063 21.6191 177.582 21.6191C178.633 21.6191 179.626 21.8548 180.503 22.326C181.379 22.7973 182.138 23.5042 182.722 24.3878C183.19 25.0947 183.54 25.9194 183.715 26.803C183.949 27.6867 184.008 28.9237 184.008 30.4553V40.1752H178.75V29.2183C178.75 28.5114 178.692 27.9812 178.458 27.6867C178.283 27.3921 177.991 27.2154 177.582 27.2154C177.173 27.2154 176.939 27.3332 176.764 27.6278C176.589 27.9223 176.53 28.3936 176.53 29.2183V31.1033H177.932V35.9338H176.53V40.1752H171.156V40.2341Z" fill="white"></path><path fill-rule="evenodd" clip-rule="evenodd" d="M186.169 40.2927V35.1088C186.403 35.1677 186.578 35.1677 186.753 35.2266C186.928 35.2266 187.045 35.2855 187.162 35.2855C187.629 35.2855 187.98 35.1677 188.213 34.932C188.447 34.6964 188.564 34.343 188.564 33.9306C188.564 33.4593 188.33 32.8703 187.921 32.1634C187.863 32.1045 187.863 31.9866 187.805 31.9866L187.688 31.8099C186.87 30.455 186.403 29.1591 186.403 27.9809C186.403 26.3315 186.987 24.8588 188.213 23.5628C189.44 22.3257 190.901 21.6777 192.595 21.6777C193.004 21.6777 193.471 21.7366 193.88 21.7956C194.347 21.9134 194.814 22.0312 195.34 22.2079V27.4507C194.99 27.3329 194.756 27.2151 194.522 27.1562C194.289 27.0973 194.055 27.0973 193.88 27.0973C193.471 27.0973 193.12 27.2151 192.887 27.5096C192.653 27.7453 192.478 28.0987 192.478 28.5111C192.478 28.9234 192.711 29.4536 193.12 30.1605C193.179 30.3372 193.296 30.455 193.296 30.5139C193.704 31.1619 193.938 31.8099 194.113 32.4579C194.289 33.1059 194.405 33.7539 194.405 34.4019C194.405 36.228 193.821 37.7007 192.595 38.9378C191.368 40.1159 189.908 40.705 188.155 40.705C187.863 40.705 187.512 40.705 187.22 40.6461C186.928 40.4694 186.578 40.4105 186.169 40.2927Z" fill="white"></path><path fill-rule="evenodd" clip-rule="evenodd" d="M203.284 40.2927V35.1088C203.518 35.1677 203.693 35.1677 203.868 35.2266C204.044 35.2266 204.16 35.2855 204.277 35.2855C204.745 35.2855 205.095 35.1677 205.329 34.932C205.562 34.6964 205.679 34.343 205.679 33.9306C205.679 33.4593 205.446 32.8703 205.037 32.1634C204.978 32.1045 204.92 31.9866 204.92 31.9866L204.803 31.8099C203.985 30.455 203.576 29.1591 203.576 27.9809C203.576 26.3315 204.16 24.8588 205.387 23.5628C206.614 22.3257 208.074 21.6777 209.768 21.6777C210.177 21.6777 210.644 21.7366 211.053 21.7956C211.521 21.9134 211.988 22.0312 212.514 22.2079V27.4507C212.163 27.3329 211.93 27.2151 211.696 27.1562C211.462 27.0973 211.229 27.0973 211.053 27.0973C210.644 27.0973 210.294 27.2151 210.06 27.5096C209.827 27.7453 209.71 28.0987 209.71 28.5111C209.71 28.9234 209.943 29.4536 210.352 30.1605C210.411 30.3372 210.469 30.455 210.528 30.5139C210.937 31.1619 211.17 31.8099 211.345 32.4579C211.521 33.1059 211.638 33.7539 211.638 34.4019C211.638 36.228 211.053 37.7007 209.827 38.9378C208.6 40.1159 207.14 40.705 205.387 40.705C205.095 40.705 204.745 40.705 204.452 40.6461C204.044 40.4694 203.693 40.4105 203.284 40.2927Z" fill="white"></path><path fill-rule="evenodd" clip-rule="evenodd" d="M213.157 37.4659C213.157 36.5823 213.449 35.8754 214.092 35.2863C214.676 34.6972 215.435 34.3438 216.312 34.3438C217.188 34.3438 217.889 34.6383 218.473 35.2274C219.057 35.8165 219.349 36.5823 219.349 37.407C219.349 38.2906 219.057 38.9975 218.473 39.6455C217.889 40.2346 217.129 40.588 216.312 40.588C215.435 40.588 214.734 40.2935 214.092 39.6455C213.449 39.0564 213.157 38.2906 213.157 37.4659Z" fill="white"></path><path fill-rule="evenodd" clip-rule="evenodd" d="M220.984 40.2341V30.5143C220.984 29.5128 220.984 28.747 221.043 28.2168C221.101 27.6867 221.16 27.2154 221.276 26.7441C221.685 25.0947 222.445 23.8576 223.496 22.974C224.606 22.0904 225.891 21.6191 227.41 21.6191C228.462 21.6191 229.455 21.8548 230.331 22.326C231.265 22.7973 231.966 23.5042 232.551 24.3878C233.018 25.0947 233.368 25.9194 233.544 26.803C233.777 27.6867 233.836 28.9237 233.836 30.4553V40.1752H228.578V29.2183C228.578 28.5114 228.52 27.9812 228.286 27.6867C228.111 27.3921 227.819 27.2154 227.41 27.2154C227.001 27.2154 226.767 27.3332 226.592 27.6278C226.417 27.9223 226.359 28.3936 226.359 29.2183V31.1033H227.761V35.9338H226.359V40.1752H220.984V40.2341Z" fill="white"></path><path fill-rule="evenodd" clip-rule="evenodd" d="M235.646 37.4659C235.646 36.5823 235.939 35.8754 236.581 35.2863C237.165 34.6972 237.925 34.3438 238.801 34.3438C239.677 34.3438 240.378 34.6383 240.962 35.2274C241.546 35.8165 241.838 36.5823 241.838 37.407C241.838 38.2906 241.546 38.9975 240.962 39.6455C240.378 40.2346 239.619 40.588 238.801 40.588C237.925 40.588 237.224 40.2935 236.581 39.6455C235.939 39.0564 235.646 38.2906 235.646 37.4659Z" fill="white"></path><path fill-rule="evenodd" clip-rule="evenodd" d="M74.3043 19.3223V7.54068C74.3043 6.89269 74.2459 6.48034 74.0707 6.2447C73.8954 6.00907 73.6618 5.89125 73.2529 5.89125C72.844 5.89125 72.5519 6.00907 72.3766 6.2447C72.2014 6.48034 72.143 6.89269 72.143 7.54068V19.3223H67.0024V7.54068C67.0024 6.89269 66.944 6.48034 66.7688 6.2447C66.5935 6.00907 66.3599 5.89125 65.951 5.89125C65.5421 5.89125 65.25 6.00907 65.0747 6.2447C64.8995 6.48034 64.8411 6.89269 64.8411 7.54068V19.3223H59.8174V7.7174C59.8174 6.48034 59.8758 5.53781 59.9926 4.88982C60.1095 4.24183 60.3431 3.71166 60.6352 3.18148C61.1025 2.41568 61.7451 1.8266 62.5045 1.35533C63.2639 0.942978 64.1401 0.707346 65.0747 0.707346C66.0094 0.707346 66.8856 0.942978 67.645 1.41424C68.4044 1.88551 69.047 2.5335 69.5727 3.35821C70.0984 2.47459 70.741 1.8266 71.5004 1.35533C72.2598 0.88407 73.136 0.648438 74.0707 0.648438C74.8885 0.648438 75.7063 0.825162 76.4073 1.1197C77.1083 1.41424 77.6924 1.88551 78.1597 2.5335C78.5686 3.06367 78.8607 3.71166 79.0944 4.41855C79.2696 5.12545 79.3864 6.18579 79.3864 7.59959V19.2634H74.3043V19.3223Z" fill="white"></path><path fill-rule="evenodd" clip-rule="evenodd" d="M139.495 3.35726V3.71071L135.172 6.89175C134.997 6.5383 134.822 6.30267 134.588 6.18485C134.354 6.00813 134.121 5.94922 133.829 5.94922C133.42 5.94922 133.186 6.06704 133.011 6.36158C132.836 6.65612 132.777 7.12738 132.777 7.89318V9.66043H134.471V14.4909H132.777V19.3213H127.286V7.89318C127.286 5.77249 127.929 4.06416 129.214 2.76818C130.499 1.47221 132.135 0.824219 134.238 0.824219C135.464 0.824219 136.457 1.05985 137.392 1.53112C138.151 1.94347 138.911 2.53255 139.495 3.35726Z" fill="white"></path><path fill-rule="evenodd" clip-rule="evenodd" d="M152.054 6.00813C151.879 5.12451 151.528 4.29979 151.061 3.5929C150.477 2.70928 149.718 2.00238 148.841 1.53112C147.965 1.05985 146.972 0.824219 145.921 0.824219C144.402 0.824219 143.058 1.29548 142.007 2.1791C140.897 3.06272 140.196 4.29979 139.787 5.94922C139.729 6.18485 139.67 6.47939 139.612 6.71502C139.553 6.95066 139.553 7.12738 139.495 7.36301C139.437 7.89319 139.437 8.65899 139.437 9.66043V19.3803H144.928V15.1389H146.33V10.3084H144.869V8.36445C144.869 7.59864 144.928 7.06847 145.103 6.77393C145.278 6.47939 145.57 6.36158 145.921 6.36158C146.33 6.36158 146.622 6.5383 146.797 6.83284C146.972 7.12738 147.089 7.65755 147.089 8.36445V19.3803H152.346V9.66043C152.346 8.06991 152.229 6.89175 152.054 6.00813Z" fill="white"></path><path fill-rule="evenodd" clip-rule="evenodd" d="M139.495 33.9313L139.028 32.871C139.203 32.7532 139.32 32.6354 139.495 32.5175C140.138 31.9285 140.605 31.3394 140.956 30.7503C141.365 29.9845 141.54 29.1598 141.54 28.2173C141.54 27.2158 141.306 26.3322 140.897 25.4486C140.547 24.7417 140.079 24.1526 139.437 23.6224C139.32 23.5046 139.203 23.3868 139.028 23.3279C138.444 22.9155 137.801 22.5621 137.159 22.3854C136.516 22.2086 135.582 22.0908 134.355 22.0908H127.754V40.2934H133.128V27.3336H134.53C135.114 27.3336 135.465 27.4515 135.698 27.6282C135.932 27.8049 135.99 28.0994 135.99 28.5707C135.99 29.042 135.874 29.3365 135.64 29.5721C135.406 29.7489 135.056 29.8667 134.472 29.8667H133.887V34.6382L136.341 40.3523H142.007L139.495 33.9313Z" fill="white"></path><path fill-rule="evenodd" clip-rule="evenodd" d="M81.5479 19.3217V9.66074C81.5479 8.6593 81.5478 7.8935 81.6063 7.36333C81.6647 6.83315 81.7231 6.36189 81.8399 5.89062C82.2488 4.2412 83.0082 3.00413 84.0597 2.12051C85.1696 1.23689 86.4547 0.765625 87.9735 0.765625C89.025 0.765625 90.018 1.00126 90.9527 1.47252C91.8289 1.94379 92.5883 2.65068 93.1725 3.5343C93.6398 4.2412 93.9903 5.06591 94.1655 5.94953C94.3992 6.83315 94.4576 8.07022 94.4576 9.60183V19.3217H89.2002V8.36476C89.2002 7.65787 89.0834 7.12769 88.9082 6.83315C88.7329 6.53861 88.4408 6.36189 88.0319 6.36189C87.623 6.36189 87.3894 6.47971 87.2141 6.77425C87.0389 7.06879 86.9805 7.59896 86.9805 8.36476V10.3087H88.3824V15.1392H87.0389V19.3806H81.5479V19.3217Z" fill="white"></path><path fill-rule="evenodd" clip-rule="evenodd" d="M96.9688 19.3217V9.13057C96.9688 8.07022 97.0272 7.24551 97.144 6.53861C97.2608 5.89062 97.4361 5.24264 97.7281 4.59465C98.1955 3.41649 98.9549 2.47396 100.006 1.82597C101.058 1.11907 102.168 0.765625 103.394 0.765625C104.446 0.765625 105.381 1.00126 106.257 1.53143C107.133 2.00269 107.892 2.70959 108.477 3.59321C108.944 4.30011 109.294 5.12482 109.47 5.94953C109.645 6.83315 109.762 8.01131 109.762 9.60183V19.3217H104.504V8.36476C104.504 7.65787 104.387 7.1866 104.212 6.83315C104.037 6.53861 103.745 6.36189 103.336 6.36189C102.986 6.36189 102.693 6.47971 102.518 6.77425C102.343 7.06879 102.285 7.59896 102.285 8.36476V19.3806H96.9688V19.3217Z" fill="white"></path><path fill-rule="evenodd" clip-rule="evenodd" d="M124.833 1.11914V11.0746C124.833 12.1939 124.775 13.1364 124.658 13.8433C124.541 14.5502 124.366 15.1982 124.074 15.8462C123.606 17.0243 122.847 17.9668 121.795 18.6148C120.802 19.3217 119.634 19.6752 118.466 19.6752C117.239 19.6752 116.129 19.3217 115.078 18.6148C114.026 17.9079 113.325 16.9654 112.799 15.8462C112.507 15.1982 112.332 14.5502 112.215 13.8433C112.098 13.1364 112.04 12.2528 112.04 11.0746V10.7801V1.11914H117.297V12.1349C117.297 12.8418 117.414 13.3131 117.589 13.6666C117.765 13.9611 118.057 14.1378 118.466 14.1378C118.875 14.1378 119.167 14.02 119.284 13.7255C119.459 13.4309 119.517 12.9597 119.517 12.1939V1.11914H124.833Z" fill="white"></path><path fill-rule="evenodd" clip-rule="evenodd" d="M70.098 40.2338H66.3594C65.4248 40.2338 64.6654 40.1749 64.1397 40.0571C63.6139 39.9393 63.0882 39.7626 62.6209 39.468C61.8031 38.9968 61.1605 38.4077 60.6932 37.6419C60.2259 36.8761 59.9922 36.1103 59.9922 35.2856V28.5111C59.9922 26.9795 60.109 25.8603 60.4011 25.2123C60.6932 24.5054 61.1605 23.9163 61.8615 23.3272C62.3872 22.856 63.0298 22.5614 63.7892 22.3258C64.5486 22.1491 65.4832 22.0312 66.6515 22.0312H70.098V27.333H66.6515C66.2426 27.333 65.9505 27.3919 65.8337 27.5097C65.6585 27.6275 65.6 27.8631 65.6 28.1577C65.6 28.4522 65.6585 28.6879 65.8337 28.8646C66.0089 28.9824 66.2426 29.1002 66.6515 29.1002H69.8644V33.1649H66.1842C65.7753 33.1649 65.5416 33.2238 65.3664 33.3416C65.1911 33.4594 65.1327 33.695 65.1327 33.9896C65.1327 34.343 65.1911 34.5787 65.3664 34.6965C65.5416 34.8143 65.7753 34.9321 66.1842 34.9321H70.098V40.2338Z" fill="white"></path><path fill-rule="evenodd" clip-rule="evenodd" d="M72.0254 22.0312H77.3996V32.7525C77.3996 33.5183 77.5748 34.0485 77.8669 34.4019C78.159 34.7554 78.6263 34.9321 79.2689 34.9321C79.3857 34.9321 79.5025 34.9321 79.5609 34.9321C79.6194 34.9321 79.6778 34.9321 79.7362 34.9321V40.2338H78.5095C77.5164 40.2338 76.6402 40.116 75.8808 39.8215C75.1214 39.5858 74.4788 39.1735 73.8947 38.6433C73.1937 37.9953 72.7264 37.2884 72.4343 36.4048C72.1422 35.5801 72.0254 34.2252 72.0254 32.3402V31.7511V22.0312Z" fill="white"></path><path fill-rule="evenodd" clip-rule="evenodd" d="M91.4193 40.2338H87.6807C86.7461 40.2338 85.9867 40.1749 85.461 40.0571C84.9352 39.9393 84.4095 39.7626 83.9422 39.468C83.1243 38.9968 82.4818 38.4077 82.0145 37.6419C81.5471 36.8761 81.3135 36.1103 81.3135 35.2856V28.5111C81.3135 26.9795 81.4303 25.8603 81.7224 25.2123C82.0145 24.5054 82.4818 23.9163 83.1828 23.3272C83.7085 22.856 84.3511 22.5614 85.1105 22.3258C85.8699 22.1491 86.8045 22.0312 87.9728 22.0312H91.4193V27.333H87.9728C87.5639 27.333 87.2718 27.3919 87.155 27.5097C86.9797 27.6275 86.9213 27.8631 86.9213 28.1577C86.9213 28.4522 86.9797 28.6879 87.155 28.8646C87.3302 28.9824 87.5639 29.1002 87.9728 29.1002H91.1856V33.1649H87.4471C87.0382 33.1649 86.8045 33.2238 86.6293 33.3416C86.454 33.4594 86.3956 33.695 86.3956 33.9896C86.3956 34.343 86.454 34.5787 86.6293 34.6965C86.8045 34.8143 87.0382 34.9321 87.4471 34.9321H91.3609V40.2338H91.4193Z" fill="white"></path><path fill-rule="evenodd" clip-rule="evenodd" d="M111.573 31.9866C111.339 34.4019 110.404 36.4048 108.886 37.9364C107.133 39.7036 104.913 40.5872 102.226 40.5872C101.292 40.5872 100.357 40.4694 99.4808 40.1749C98.6046 39.8803 97.7868 39.5269 97.0274 38.9967C95.7422 38.1131 94.6907 36.9938 93.9898 35.58C93.2888 34.2252 92.8799 32.7525 92.8799 31.1619C92.8799 30.2194 92.9967 29.3358 93.2888 28.4522C93.5809 27.5685 93.9314 26.7438 94.4571 25.9191C95.3333 24.6231 96.4432 23.5628 97.8452 22.797C99.1887 22.0312 100.708 21.6777 102.226 21.6777C104.621 21.6777 106.607 22.3846 108.301 23.7984C109.762 25.0355 110.755 26.626 111.281 28.6289H105.147C104.913 28.3933 104.68 28.1576 104.446 27.9809C103.862 27.5685 103.161 27.3329 102.402 27.3329C101.35 27.3329 100.474 27.6864 99.7145 28.4522C98.9551 29.218 98.6046 30.1016 98.6046 31.103C98.6046 32.1634 98.9551 33.047 99.7145 33.7539C100.474 34.5197 101.35 34.8731 102.343 34.8731C103.395 34.8731 104.271 34.5197 104.913 33.8717C105.381 33.4004 105.731 32.7525 105.965 31.9277H111.573V31.9866Z" fill="white"></path><path fill-rule="evenodd" clip-rule="evenodd" d="M112.8 27.333V22.0312H125.943V27.333H122.088V40.2338H116.655V27.333H112.8Z" fill="white"></path></g><defs><clipPath id="clip0"><rect width="244" height="41" fill="white"></rect></clipPath></defs></svg>